. 
 
http://www.torrentday.com   -    Your Key To The Scene.

Now TvTeam with [No-RAR] Releases.

(((((((((((((= Enjoy No RAR releases =))))))))))))))))))))

...................................NFO:....................................

                               Red Cliff.2008.BRRip-Xvid-720p-ToPKaT


In the early third century, the land of Wu is invaded by the warlord Cao Cao and his million soldiers. The ruler of Wu, Sun Quan, calls on the rival warlord Liu Bei for help, but their two armies are still badly outnumbered. However, the Wu strategist Zhou Yu sees that Cao Cao's army is unused to battling on the sea, which may just give them a chance if they can exploit this weakness properly.


Director:John Woo
Writers:John Woo (screenplay) &
Khan Chan
Release Date:12 June 2009 (UK) 
Genre:Action | Adventure | Drama | History | War 
Rated R for sequences of epic warfare.
Parents Guide:Add content advisory for parents
Runtime: UK:148 min
Country:China
Language:Mandarin
Hardcoded English Subtitles
Color:Color
Aspect Ratio:2.35 : 1 

Tony Leung Chiu Wai	 ... 	Zhou Yu (as Tony Leung)
	Takeshi Kaneshiro	... 	Zhuge Liang
	Fengyi Zhang	... 	Cao Cao
	Chen Chang	... 	Sun Quan

	Wei Zhao	... 	Sun Shangxiang
	Jun Hu	... 	Zhao Yun
	Shido Nakamura	... 	Gan Xing (as Shidou Nakamura)
	Chiling Lin	... 	Xiao Qiao (as Chi-Ling Lin)
	Yong You	... 	Liu Bei
	Yong Hou	... 	Lu Su
	Dawei Tong	... 	Sun Shucai
	Jia Song	... 	Li Ji
	Ba Sen Zha Bu	... 	Guan Yu
	Jinsheng Zang	... 	Zhang Fei
	Shan Zhang	... 	Huang Gai 
.................................................
Source = Red.Cliff.2008.PROPER.720p.BluRay.x264-CiNEFiLE    8GB

Format                           : AVI
Format/Info                      : Audio Video Interleave
Format profile                   : OpenDML
File size                        : 3.71 GiB
Duration                         : 2h 25mn
Overall bit rate                 : 3 653 Kbps
Writing application              : VirtualDubMod 1.5.10.3 | www.virtualdub-fr.org || (build 2550/release)
Writing library                  : VirtualDubMod build 2550/release

Video
ID                               : 0
Format                           : MPEG-4 Visual
Format profile                   : Advanced Simple@L5
Format settings, BVOP            : Yes
Format settings, QPel            : No
Format settings, GMC             : No warppoints
Codec ID                         : XVID
Codec ID/Hint                    : XviD
Duration                         : 2h 25mn
Bit rate                         : 3 004 Kbps
Width                            : 1 280 pixels
Height                           : 544 pixels
Display aspect ratio             : 2.35:1
Frame rate                       : 24.000 fps
Resolution                       : 8 bits
Colorimetry                      : 4:2:0
Scan type                        : Progressive
Bits/(Pixel*Frame)               : 0.180
Stream size                      : 3.05 GiB (82%)
Writing library                  : XviD 1.2.1 (UTC 2008-12-04)

Audio
ID                               : 1
Format                           : AC-3
Format/Info                      : Audio Coding 3
Codec ID                         : 2000
Duration                         : 2h 25mn
Bit rate mode                    : Constant
Bit rate                         : 640 Kbps
Channel(s)                       : 6 channels
Channel positions                : Front: L C R, Surround: L R, LFE
Sampling rate                    : 48.0 KHz
Stream size                      : 665 MiB (18%)
Alignment                        : Split accross interleaves
Interleave, duration             : 42 ms (1.00 video frame)
Interleave, preload duration     : 500 m